<?xml version="1.0" encoding="UTF-8" standalone="no"?>
<!-- Created with Inkscape (http://www.inkscape.org/) -->

<svg
   xmlns:dc="http://purl.org/dc/elements/1.1/"
   xmlns:cc="http://creativecommons.org/ns#"
   xmlns:rdf="http://www.w3.org/1999/02/22-rdf-syntax-ns#"
   xmlns:svg="http://www.w3.org/2000/svg"
   xmlns="http://www.w3.org/2000/svg"
   xmlns:sodipodi="http://sodipodi.sourceforge.net/DTD/sodipodi-0.dtd"
   xmlns:inkscape="http://www.inkscape.org/namespaces/inkscape"
   width="235.60005"
   height="265.9761"
   id="svg3783"
   version="1.1"
   inkscape:version="0.48.4 r9939"
   sodipodi:docname="enigma_ico.svg">
  <defs
     id="defs3785" />
  <sodipodi:namedview
     id="base"
     pagecolor="#ffffff"
     bordercolor="#666666"
     borderopacity="1.0"
     inkscape:pageopacity="0.0"
     inkscape:pageshadow="2"
     inkscape:zoom="1.979899"
     inkscape:cx="230.59429"
     inkscape:cy="172.55767"
     inkscape:document-units="px"
     inkscape:current-layer="layer1"
     showgrid="true"
     showguides="true"
     inkscape:guide-bbox="true"
     inkscape:window-width="1920"
     inkscape:window-height="1017"
     inkscape:window-x="-8"
     inkscape:window-y="-8"
     inkscape:window-maximized="1"
     fit-margin-top="0"
     fit-margin-left="0"
     fit-margin-right="0"
     fit-margin-bottom="0">
    <inkscape:grid
       type="xygrid"
       id="grid4468"
       empspacing="5"
       visible="true"
       enabled="true"
       snapvisiblegridlinesonly="true"
       originx="-89.714719px"
       originy="-168.8666px" />
  </sodipodi:namedview>
  <metadata
     id="metadata3788">
    <rdf:RDF>
      <cc:Work
         rdf:about="">
        <dc:format>image/svg+xml</dc:format>
        <dc:type
           rdf:resource="http://purl.org/dc/dcmitype/StillImage" />
        <dc:title></dc:title>
      </cc:Work>
    </rdf:RDF>
  </metadata>
  <g
     inkscape:label="Calque 1"
     inkscape:groupmode="layer"
     id="layer1"
     transform="translate(-89.714719,-617.51949)">
    <rect
       style="fill:#1abc9c;fill-opacity:1;fill-rule:nonzero;stroke:#1abc9c;stroke-width:1.97395885;stroke-linejoin:round;stroke-miterlimit:4;stroke-opacity:1;stroke-dasharray:none"
       id="rect4665-0"
       width="233.25829"
       height="73.763351"
       x="90.851212"
       y="618.50647" />
    <rect
       style="fill:#34495e;fill-opacity:1;fill-rule:nonzero;stroke:none"
       id="rect5055"
       width="205"
       height="15"
       x="105"
       y="95"
       transform="translate(0,552.36218)" />
    <path
       style="fill:#1abc9c;fill-opacity:1;stroke:none"
       d="M 89.933649,777.32784 C 105,777.35821 310,777.36077 325,777.36077 c 0,13.26463 5,105.48361 -30,105.48361 -16.12724,0 -155.887,0.63086 -175.65065,0.65119 C 85.000016,883.53093 90,790.62284 89.933649,777.32784 z"
       id="path3817"
       inkscape:connector-curvature="0"
       sodipodi:nodetypes="ccssc" />
    <path
       style="fill:#16a085;fill-opacity:1;stroke:none"
       d="m 120,792.36218 c 15,0 160,0 175,0 20,0 20,75 -5,75 -15,0 -150,0 -165,0 -25,0 -25,-75 -5,-75 z"
       id="path4327"
       inkscape:connector-curvature="0"
       sodipodi:nodetypes="csssc" />
    <path
       sodipodi:type="arc"
       style="fill:#ffffff;fill-opacity:1;fill-rule:nonzero;stroke:none"
       id="path4472"
       sodipodi:cx="122.5"
       sodipodi:cy="257.5"
       sodipodi:rx="7.5"
       sodipodi:ry="7.5"
       d="m 130,257.5 c 0,4.14214 -3.35786,7.5 -7.5,7.5 -4.14214,0 -7.5,-3.35786 -7.5,-7.5 0,-4.14214 3.35786,-7.5 7.5,-7.5 4.14214,0 7.5,3.35786 7.5,7.5 z"
       transform="translate(5.2626907,552.61471)" />
    <path
       transform="translate(25.109128,552.6642)"
       sodipodi:type="arc"
       style="fill:#ffffff;fill-opacity:1;fill-rule:nonzero;stroke:none"
       id="path4472-0"
       sodipodi:cx="122.5"
       sodipodi:cy="257.5"
       sodipodi:rx="7.5"
       sodipodi:ry="7.5"
       d="m 130,257.5 c 0,4.14214 -3.35786,7.5 -7.5,7.5 -4.14214,0 -7.5,-3.35786 -7.5,-7.5 0,-4.14214 3.35786,-7.5 7.5,-7.5 4.14214,0 7.5,3.35786 7.5,7.5 z" />
    <path
       transform="translate(45.211928,552.86725)"
       sodipodi:type="arc"
       style="fill:#ffffff;fill-opacity:1;fill-rule:nonzero;stroke:none"
       id="path4472-3"
       sodipodi:cx="122.5"
       sodipodi:cy="257.5"
       sodipodi:rx="7.5"
       sodipodi:ry="7.5"
       d="m 130,257.5 c 0,4.14214 -3.35786,7.5 -7.5,7.5 -4.14214,0 -7.5,-3.35786 -7.5,-7.5 0,-4.14214 3.35786,-7.5 7.5,-7.5 4.14214,0 7.5,3.35786 7.5,7.5 z" />
    <path
       transform="translate(65.262691,552.61471)"
       sodipodi:type="arc"
       style="fill:#ffffff;fill-opacity:1;fill-rule:nonzero;stroke:none"
       id="path4472-6"
       sodipodi:cx="122.5"
       sodipodi:cy="257.5"
       sodipodi:rx="7.5"
       sodipodi:ry="7.5"
       d="m 130,257.5 c 0,4.14214 -3.35786,7.5 -7.5,7.5 -4.14214,0 -7.5,-3.35786 -7.5,-7.5 0,-4.14214 3.35786,-7.5 7.5,-7.5 4.14214,0 7.5,3.35786 7.5,7.5 z" />
    <path
       transform="translate(85.262691,552.61471)"
       sodipodi:type="arc"
       style="fill:#ffffff;fill-opacity:1;fill-rule:nonzero;stroke:none"
       id="path4472-2"
       sodipodi:cx="122.5"
       sodipodi:cy="257.5"
       sodipodi:rx="7.5"
       sodipodi:ry="7.5"
       d="m 130,257.5 c 0,4.14214 -3.35786,7.5 -7.5,7.5 -4.14214,0 -7.5,-3.35786 -7.5,-7.5 0,-4.14214 3.35786,-7.5 7.5,-7.5 4.14214,0 7.5,3.35786 7.5,7.5 z" />
    <path
       transform="translate(105.26269,552.61471)"
       sodipodi:type="arc"
       style="fill:#ffffff;fill-opacity:1;fill-rule:nonzero;stroke:none"
       id="path4472-4"
       sodipodi:cx="122.5"
       sodipodi:cy="257.5"
       sodipodi:rx="7.5"
       sodipodi:ry="7.5"
       d="m 130,257.5 c 0,4.14214 -3.35786,7.5 -7.5,7.5 -4.14214,0 -7.5,-3.35786 -7.5,-7.5 0,-4.14214 3.35786,-7.5 7.5,-7.5 4.14214,0 7.5,3.35786 7.5,7.5 z" />
    <path
       transform="translate(125.26269,552.61471)"
       sodipodi:type="arc"
       style="fill:#ffffff;fill-opacity:1;fill-rule:nonzero;stroke:none"
       id="path4472-5"
       sodipodi:cx="122.5"
       sodipodi:cy="257.5"
       sodipodi:rx="7.5"
       sodipodi:ry="7.5"
       d="m 130,257.5 c 0,4.14214 -3.35786,7.5 -7.5,7.5 -4.14214,0 -7.5,-3.35786 -7.5,-7.5 0,-4.14214 3.35786,-7.5 7.5,-7.5 4.14214,0 7.5,3.35786 7.5,7.5 z" />
    <path
       transform="translate(145.26269,552.61471)"
       sodipodi:type="arc"
       style="fill:#ffffff;fill-opacity:1;fill-rule:nonzero;stroke:none"
       id="path4472-8"
       sodipodi:cx="122.5"
       sodipodi:cy="257.5"
       sodipodi:rx="7.5"
       sodipodi:ry="7.5"
       d="m 130,257.5 c 0,4.14214 -3.35786,7.5 -7.5,7.5 -4.14214,0 -7.5,-3.35786 -7.5,-7.5 0,-4.14214 3.35786,-7.5 7.5,-7.5 4.14214,0 7.5,3.35786 7.5,7.5 z" />
    <path
       transform="translate(165.26269,552.61471)"
       sodipodi:type="arc"
       style="fill:#ffffff;fill-opacity:1;fill-rule:nonzero;stroke:none"
       id="path4472-81"
       sodipodi:cx="122.5"
       sodipodi:cy="257.5"
       sodipodi:rx="7.5"
       sodipodi:ry="7.5"
       d="m 130,257.5 c 0,4.14214 -3.35786,7.5 -7.5,7.5 -4.14214,0 -7.5,-3.35786 -7.5,-7.5 0,-4.14214 3.35786,-7.5 7.5,-7.5 4.14214,0 7.5,3.35786 7.5,7.5 z" />
    <path
       transform="translate(15.163716,572.41294)"
       sodipodi:type="arc"
       style="fill:#ffffff;fill-opacity:1;fill-rule:nonzero;stroke:none"
       id="path4472-0-4"
       sodipodi:cx="122.5"
       sodipodi:cy="257.5"
       sodipodi:rx="7.5"
       sodipodi:ry="7.5"
       d="m 130,257.5 c 0,4.14214 -3.35786,7.5 -7.5,7.5 -4.14214,0 -7.5,-3.35786 -7.5,-7.5 0,-4.14214 3.35786,-7.5 7.5,-7.5 4.14214,0 7.5,3.35786 7.5,7.5 z" />
    <path
       transform="translate(35.266516,572.61599)"
       sodipodi:type="arc"
       style="fill:#ffffff;fill-opacity:1;fill-rule:nonzero;stroke:none"
       id="path4472-3-5"
       sodipodi:cx="122.5"
       sodipodi:cy="257.5"
       sodipodi:rx="7.5"
       sodipodi:ry="7.5"
       d="m 130,257.5 c 0,4.14214 -3.35786,7.5 -7.5,7.5 -4.14214,0 -7.5,-3.35786 -7.5,-7.5 0,-4.14214 3.35786,-7.5 7.5,-7.5 4.14214,0 7.5,3.35786 7.5,7.5 z" />
    <path
       transform="translate(55.317279,572.36345)"
       sodipodi:type="arc"
       style="fill:#ffffff;fill-opacity:1;fill-rule:nonzero;stroke:none"
       id="path4472-6-2"
       sodipodi:cx="122.5"
       sodipodi:cy="257.5"
       sodipodi:rx="7.5"
       sodipodi:ry="7.5"
       d="m 130,257.5 c 0,4.14214 -3.35786,7.5 -7.5,7.5 -4.14214,0 -7.5,-3.35786 -7.5,-7.5 0,-4.14214 3.35786,-7.5 7.5,-7.5 4.14214,0 7.5,3.35786 7.5,7.5 z" />
    <path
       transform="translate(75.317279,572.36345)"
       sodipodi:type="arc"
       style="fill:#ffffff;fill-opacity:1;fill-rule:nonzero;stroke:none"
       id="path4472-2-9"
       sodipodi:cx="122.5"
       sodipodi:cy="257.5"
       sodipodi:rx="7.5"
       sodipodi:ry="7.5"
       d="m 130,257.5 c 0,4.14214 -3.35786,7.5 -7.5,7.5 -4.14214,0 -7.5,-3.35786 -7.5,-7.5 0,-4.14214 3.35786,-7.5 7.5,-7.5 4.14214,0 7.5,3.35786 7.5,7.5 z" />
    <path
       transform="translate(95.317278,572.36345)"
       sodipodi:type="arc"
       style="fill:#ffffff;fill-opacity:1;fill-rule:nonzero;stroke:none"
       id="path4472-4-9"
       sodipodi:cx="122.5"
       sodipodi:cy="257.5"
       sodipodi:rx="7.5"
       sodipodi:ry="7.5"
       d="m 130,257.5 c 0,4.14214 -3.35786,7.5 -7.5,7.5 -4.14214,0 -7.5,-3.35786 -7.5,-7.5 0,-4.14214 3.35786,-7.5 7.5,-7.5 4.14214,0 7.5,3.35786 7.5,7.5 z" />
    <path
       transform="translate(115.31728,572.36345)"
       sodipodi:type="arc"
       style="fill:#ffffff;fill-opacity:1;fill-rule:nonzero;stroke:none"
       id="path4472-5-8"
       sodipodi:cx="122.5"
       sodipodi:cy="257.5"
       sodipodi:rx="7.5"
       sodipodi:ry="7.5"
       d="m 130,257.5 c 0,4.14214 -3.35786,7.5 -7.5,7.5 -4.14214,0 -7.5,-3.35786 -7.5,-7.5 0,-4.14214 3.35786,-7.5 7.5,-7.5 4.14214,0 7.5,3.35786 7.5,7.5 z" />
    <path
       transform="translate(135.31728,572.36345)"
       sodipodi:type="arc"
       style="fill:#ffffff;fill-opacity:1;fill-rule:nonzero;stroke:none"
       id="path4472-8-3"
       sodipodi:cx="122.5"
       sodipodi:cy="257.5"
       sodipodi:rx="7.5"
       sodipodi:ry="7.5"
       d="m 130,257.5 c 0,4.14214 -3.35786,7.5 -7.5,7.5 -4.14214,0 -7.5,-3.35786 -7.5,-7.5 0,-4.14214 3.35786,-7.5 7.5,-7.5 4.14214,0 7.5,3.35786 7.5,7.5 z" />
    <path
       transform="translate(155.31728,572.36345)"
       sodipodi:type="arc"
       style="fill:#ffffff;fill-opacity:1;fill-rule:nonzero;stroke:none"
       id="path4472-81-8"
       sodipodi:cx="122.5"
       sodipodi:cy="257.5"
       sodipodi:rx="7.5"
       sodipodi:ry="7.5"
       d="m 130,257.5 c 0,4.14214 -3.35786,7.5 -7.5,7.5 -4.14214,0 -7.5,-3.35786 -7.5,-7.5 0,-4.14214 3.35786,-7.5 7.5,-7.5 4.14214,0 7.5,3.35786 7.5,7.5 z" />
    <path
       sodipodi:type="arc"
       style="fill:#ffffff;fill-opacity:1;fill-rule:nonzero;stroke:none"
       id="path4472-86"
       sodipodi:cx="122.5"
       sodipodi:cy="257.5"
       sodipodi:rx="7.5"
       sodipodi:ry="7.5"
       d="m 130,257.5 c 0,4.14214 -3.35786,7.5 -7.5,7.5 -4.14214,0 -7.5,-3.35786 -7.5,-7.5 0,-4.14214 3.35786,-7.5 7.5,-7.5 4.14214,0 7.5,3.35786 7.5,7.5 z"
       transform="translate(5.2170294,592.76827)" />
    <path
       transform="translate(25.063466,592.81776)"
       sodipodi:type="arc"
       style="fill:#ffffff;fill-opacity:1;fill-rule:nonzero;stroke:none"
       id="path4472-0-6"
       sodipodi:cx="122.5"
       sodipodi:cy="257.5"
       sodipodi:rx="7.5"
       sodipodi:ry="7.5"
       d="m 130,257.5 c 0,4.14214 -3.35786,7.5 -7.5,7.5 -4.14214,0 -7.5,-3.35786 -7.5,-7.5 0,-4.14214 3.35786,-7.5 7.5,-7.5 4.14214,0 7.5,3.35786 7.5,7.5 z" />
    <path
       transform="translate(45.166266,593.02081)"
       sodipodi:type="arc"
       style="fill:#ffffff;fill-opacity:1;fill-rule:nonzero;stroke:none"
       id="path4472-3-2"
       sodipodi:cx="122.5"
       sodipodi:cy="257.5"
       sodipodi:rx="7.5"
       sodipodi:ry="7.5"
       d="m 130,257.5 c 0,4.14214 -3.35786,7.5 -7.5,7.5 -4.14214,0 -7.5,-3.35786 -7.5,-7.5 0,-4.14214 3.35786,-7.5 7.5,-7.5 4.14214,0 7.5,3.35786 7.5,7.5 z" />
    <path
       transform="translate(65.217029,592.76827)"
       sodipodi:type="arc"
       style="fill:#ffffff;fill-opacity:1;fill-rule:nonzero;stroke:none"
       id="path4472-6-3"
       sodipodi:cx="122.5"
       sodipodi:cy="257.5"
       sodipodi:rx="7.5"
       sodipodi:ry="7.5"
       d="m 130,257.5 c 0,4.14214 -3.35786,7.5 -7.5,7.5 -4.14214,0 -7.5,-3.35786 -7.5,-7.5 0,-4.14214 3.35786,-7.5 7.5,-7.5 4.14214,0 7.5,3.35786 7.5,7.5 z" />
    <path
       transform="translate(85.217029,592.76827)"
       sodipodi:type="arc"
       style="fill:#ffffff;fill-opacity:1;fill-rule:nonzero;stroke:none"
       id="path4472-2-8"
       sodipodi:cx="122.5"
       sodipodi:cy="257.5"
       sodipodi:rx="7.5"
       sodipodi:ry="7.5"
       d="m 130,257.5 c 0,4.14214 -3.35786,7.5 -7.5,7.5 -4.14214,0 -7.5,-3.35786 -7.5,-7.5 0,-4.14214 3.35786,-7.5 7.5,-7.5 4.14214,0 7.5,3.35786 7.5,7.5 z" />
    <path
       transform="translate(105.21703,592.76827)"
       sodipodi:type="arc"
       style="fill:#ffffff;fill-opacity:1;fill-rule:nonzero;stroke:none"
       id="path4472-4-2"
       sodipodi:cx="122.5"
       sodipodi:cy="257.5"
       sodipodi:rx="7.5"
       sodipodi:ry="7.5"
       d="m 130,257.5 c 0,4.14214 -3.35786,7.5 -7.5,7.5 -4.14214,0 -7.5,-3.35786 -7.5,-7.5 0,-4.14214 3.35786,-7.5 7.5,-7.5 4.14214,0 7.5,3.35786 7.5,7.5 z" />
    <path
       transform="translate(125.21703,592.76827)"
       sodipodi:type="arc"
       style="fill:#ffffff;fill-opacity:1;fill-rule:nonzero;stroke:none"
       id="path4472-5-6"
       sodipodi:cx="122.5"
       sodipodi:cy="257.5"
       sodipodi:rx="7.5"
       sodipodi:ry="7.5"
       d="m 130,257.5 c 0,4.14214 -3.35786,7.5 -7.5,7.5 -4.14214,0 -7.5,-3.35786 -7.5,-7.5 0,-4.14214 3.35786,-7.5 7.5,-7.5 4.14214,0 7.5,3.35786 7.5,7.5 z" />
    <path
       transform="translate(145.21703,592.76827)"
       sodipodi:type="arc"
       style="fill:#ffffff;fill-opacity:1;fill-rule:nonzero;stroke:none"
       id="path4472-8-2"
       sodipodi:cx="122.5"
       sodipodi:cy="257.5"
       sodipodi:rx="7.5"
       sodipodi:ry="7.5"
       d="m 130,257.5 c 0,4.14214 -3.35786,7.5 -7.5,7.5 -4.14214,0 -7.5,-3.35786 -7.5,-7.5 0,-4.14214 3.35786,-7.5 7.5,-7.5 4.14214,0 7.5,3.35786 7.5,7.5 z" />
    <path
       transform="translate(165.21703,592.76827)"
       sodipodi:type="arc"
       style="fill:#ffffff;fill-opacity:1;fill-rule:nonzero;stroke:none"
       id="path4472-81-7"
       sodipodi:cx="122.5"
       sodipodi:cy="257.5"
       sodipodi:rx="7.5"
       sodipodi:ry="7.5"
       d="m 130,257.5 c 0,4.14214 -3.35786,7.5 -7.5,7.5 -4.14214,0 -7.5,-3.35786 -7.5,-7.5 0,-4.14214 3.35786,-7.5 7.5,-7.5 4.14214,0 7.5,3.35786 7.5,7.5 z" />
    <rect
       style="fill:#2c3e50;fill-opacity:1;fill-rule:nonzero;stroke:none"
       id="rect4663"
       width="235.06224"
       height="5"
       x="90"
       y="772.36218" />
    <rect
       style="fill:#1abc9c;fill-opacity:1;fill-rule:nonzero;stroke:none"
       id="rect4665"
       width="235"
       height="75"
       x="90"
       y="145"
       transform="translate(0,552.36218)" />
    <path
       sodipodi:type="arc"
       style="fill:#ffffff;fill-opacity:1;fill-rule:nonzero;stroke:none"
       id="path4472-7"
       sodipodi:cx="122.5"
       sodipodi:cy="257.5"
       sodipodi:rx="7.5"
       sodipodi:ry="7.5"
       d="m 130,257.5 c 0,4.14214 -3.35786,7.5 -7.5,7.5 -4.14214,0 -7.5,-3.35786 -7.5,-7.5 0,-4.14214 3.35786,-7.5 7.5,-7.5 4.14214,0 7.5,3.35786 7.5,7.5 z"
       transform="translate(5.2081012,457.15402)" />
    <path
       transform="translate(25.054541,457.20351)"
       sodipodi:type="arc"
       style="fill:#ffffff;fill-opacity:1;fill-rule:nonzero;stroke:none"
       id="path4472-0-8"
       sodipodi:cx="122.5"
       sodipodi:cy="257.5"
       sodipodi:rx="7.5"
       sodipodi:ry="7.5"
       d="m 130,257.5 c 0,4.14214 -3.35786,7.5 -7.5,7.5 -4.14214,0 -7.5,-3.35786 -7.5,-7.5 0,-4.14214 3.35786,-7.5 7.5,-7.5 4.14214,0 7.5,3.35786 7.5,7.5 z" />
    <path
       transform="translate(45.157341,457.40656)"
       sodipodi:type="arc"
       style="fill:#ffffff;fill-opacity:1;fill-rule:nonzero;stroke:none"
       id="path4472-3-27"
       sodipodi:cx="122.5"
       sodipodi:cy="257.5"
       sodipodi:rx="7.5"
       sodipodi:ry="7.5"
       d="m 130,257.5 c 0,4.14214 -3.35786,7.5 -7.5,7.5 -4.14214,0 -7.5,-3.35786 -7.5,-7.5 0,-4.14214 3.35786,-7.5 7.5,-7.5 4.14214,0 7.5,3.35786 7.5,7.5 z" />
    <path
       transform="translate(65.208101,457.15402)"
       sodipodi:type="arc"
       style="fill:#ffffff;fill-opacity:1;fill-rule:nonzero;stroke:none"
       id="path4472-6-8"
       sodipodi:cx="122.5"
       sodipodi:cy="257.5"
       sodipodi:rx="7.5"
       sodipodi:ry="7.5"
       d="m 130,257.5 c 0,4.14214 -3.35786,7.5 -7.5,7.5 -4.14214,0 -7.5,-3.35786 -7.5,-7.5 0,-4.14214 3.35786,-7.5 7.5,-7.5 4.14214,0 7.5,3.35786 7.5,7.5 z" />
    <path
       transform="translate(85.208101,457.15402)"
       sodipodi:type="arc"
       style="fill:#ffffff;fill-opacity:1;fill-rule:nonzero;stroke:none"
       id="path4472-2-0"
       sodipodi:cx="122.5"
       sodipodi:cy="257.5"
       sodipodi:rx="7.5"
       sodipodi:ry="7.5"
       d="m 130,257.5 c 0,4.14214 -3.35786,7.5 -7.5,7.5 -4.14214,0 -7.5,-3.35786 -7.5,-7.5 0,-4.14214 3.35786,-7.5 7.5,-7.5 4.14214,0 7.5,3.35786 7.5,7.5 z" />
    <path
       transform="translate(105.2081,457.15402)"
       sodipodi:type="arc"
       style="fill:#ffffff;fill-opacity:1;fill-rule:nonzero;stroke:none"
       id="path4472-4-20"
       sodipodi:cx="122.5"
       sodipodi:cy="257.5"
       sodipodi:rx="7.5"
       sodipodi:ry="7.5"
       d="m 130,257.5 c 0,4.14214 -3.35786,7.5 -7.5,7.5 -4.14214,0 -7.5,-3.35786 -7.5,-7.5 0,-4.14214 3.35786,-7.5 7.5,-7.5 4.14214,0 7.5,3.35786 7.5,7.5 z" />
    <path
       transform="translate(125.2081,457.15402)"
       sodipodi:type="arc"
       style="fill:#ffffff;fill-opacity:1;fill-rule:nonzero;stroke:none"
       id="path4472-5-89"
       sodipodi:cx="122.5"
       sodipodi:cy="257.5"
       sodipodi:rx="7.5"
       sodipodi:ry="7.5"
       d="m 130,257.5 c 0,4.14214 -3.35786,7.5 -7.5,7.5 -4.14214,0 -7.5,-3.35786 -7.5,-7.5 0,-4.14214 3.35786,-7.5 7.5,-7.5 4.14214,0 7.5,3.35786 7.5,7.5 z" />
    <path
       transform="translate(145.2081,457.15402)"
       sodipodi:type="arc"
       style="fill:#ffffff;fill-opacity:1;fill-rule:nonzero;stroke:none"
       id="path4472-8-28"
       sodipodi:cx="122.5"
       sodipodi:cy="257.5"
       sodipodi:rx="7.5"
       sodipodi:ry="7.5"
       d="m 130,257.5 c 0,4.14214 -3.35786,7.5 -7.5,7.5 -4.14214,0 -7.5,-3.35786 -7.5,-7.5 0,-4.14214 3.35786,-7.5 7.5,-7.5 4.14214,0 7.5,3.35786 7.5,7.5 z" />
    <path
       transform="translate(165.2081,457.15402)"
       sodipodi:type="arc"
       style="fill:#ffffff;fill-opacity:1;fill-rule:nonzero;stroke:none"
       id="path4472-81-2"
       sodipodi:cx="122.5"
       sodipodi:cy="257.5"
       sodipodi:rx="7.5"
       sodipodi:ry="7.5"
       d="m 130,257.5 c 0,4.14214 -3.35786,7.5 -7.5,7.5 -4.14214,0 -7.5,-3.35786 -7.5,-7.5 0,-4.14214 3.35786,-7.5 7.5,-7.5 4.14214,0 7.5,3.35786 7.5,7.5 z" />
    <path
       transform="translate(15.109131,477.70986)"
       sodipodi:type="arc"
       style="fill:#ffffff;fill-opacity:1;fill-rule:nonzero;stroke:none"
       id="path4472-0-4-0"
       sodipodi:cx="122.5"
       sodipodi:cy="257.5"
       sodipodi:rx="7.5"
       sodipodi:ry="7.5"
       d="m 130,257.5 c 0,4.14214 -3.35786,7.5 -7.5,7.5 -4.14214,0 -7.5,-3.35786 -7.5,-7.5 0,-4.14214 3.35786,-7.5 7.5,-7.5 4.14214,0 7.5,3.35786 7.5,7.5 z" />
    <path
       transform="translate(35.211931,477.91291)"
       sodipodi:type="arc"
       style="fill:#ffffff;fill-opacity:1;fill-rule:nonzero;stroke:none"
       id="path4472-3-5-5"
       sodipodi:cx="122.5"
       sodipodi:cy="257.5"
       sodipodi:rx="7.5"
       sodipodi:ry="7.5"
       d="m 130,257.5 c 0,4.14214 -3.35786,7.5 -7.5,7.5 -4.14214,0 -7.5,-3.35786 -7.5,-7.5 0,-4.14214 3.35786,-7.5 7.5,-7.5 4.14214,0 7.5,3.35786 7.5,7.5 z" />
    <path
       transform="translate(55.262691,477.66037)"
       sodipodi:type="arc"
       style="fill:#ffffff;fill-opacity:1;fill-rule:nonzero;stroke:none"
       id="path4472-6-2-5"
       sodipodi:cx="122.5"
       sodipodi:cy="257.5"
       sodipodi:rx="7.5"
       sodipodi:ry="7.5"
       d="m 130,257.5 c 0,4.14214 -3.35786,7.5 -7.5,7.5 -4.14214,0 -7.5,-3.35786 -7.5,-7.5 0,-4.14214 3.35786,-7.5 7.5,-7.5 4.14214,0 7.5,3.35786 7.5,7.5 z" />
    <path
       transform="translate(75.262691,477.66037)"
       sodipodi:type="arc"
       style="fill:#ffffff;fill-opacity:1;fill-rule:nonzero;stroke:none"
       id="path4472-2-9-2"
       sodipodi:cx="122.5"
       sodipodi:cy="257.5"
       sodipodi:rx="7.5"
       sodipodi:ry="7.5"
       d="m 130,257.5 c 0,4.14214 -3.35786,7.5 -7.5,7.5 -4.14214,0 -7.5,-3.35786 -7.5,-7.5 0,-4.14214 3.35786,-7.5 7.5,-7.5 4.14214,0 7.5,3.35786 7.5,7.5 z" />
    <path
       transform="translate(95.262692,477.66037)"
       sodipodi:type="arc"
       style="fill:#ffffff;fill-opacity:1;fill-rule:nonzero;stroke:none"
       id="path4472-4-9-7"
       sodipodi:cx="122.5"
       sodipodi:cy="257.5"
       sodipodi:rx="7.5"
       sodipodi:ry="7.5"
       d="m 130,257.5 c 0,4.14214 -3.35786,7.5 -7.5,7.5 -4.14214,0 -7.5,-3.35786 -7.5,-7.5 0,-4.14214 3.35786,-7.5 7.5,-7.5 4.14214,0 7.5,3.35786 7.5,7.5 z" />
    <path
       transform="translate(115.26269,477.66037)"
       sodipodi:type="arc"
       style="fill:#ffffff;fill-opacity:1;fill-rule:nonzero;stroke:none"
       id="path4472-5-8-6"
       sodipodi:cx="122.5"
       sodipodi:cy="257.5"
       sodipodi:rx="7.5"
       sodipodi:ry="7.5"
       d="m 130,257.5 c 0,4.14214 -3.35786,7.5 -7.5,7.5 -4.14214,0 -7.5,-3.35786 -7.5,-7.5 0,-4.14214 3.35786,-7.5 7.5,-7.5 4.14214,0 7.5,3.35786 7.5,7.5 z" />
    <path
       transform="translate(135.26269,477.66037)"
       sodipodi:type="arc"
       style="fill:#ffffff;fill-opacity:1;fill-rule:nonzero;stroke:none"
       id="path4472-8-3-7"
       sodipodi:cx="122.5"
       sodipodi:cy="257.5"
       sodipodi:rx="7.5"
       sodipodi:ry="7.5"
       d="m 130,257.5 c 0,4.14214 -3.35786,7.5 -7.5,7.5 -4.14214,0 -7.5,-3.35786 -7.5,-7.5 0,-4.14214 3.35786,-7.5 7.5,-7.5 4.14214,0 7.5,3.35786 7.5,7.5 z" />
    <path
       transform="translate(155.26269,477.66037)"
       sodipodi:type="arc"
       style="fill:#ffffff;fill-opacity:1;fill-rule:nonzero;stroke:none"
       id="path4472-81-8-8"
       sodipodi:cx="122.5"
       sodipodi:cy="257.5"
       sodipodi:rx="7.5"
       sodipodi:ry="7.5"
       d="m 130,257.5 c 0,4.14214 -3.35786,7.5 -7.5,7.5 -4.14214,0 -7.5,-3.35786 -7.5,-7.5 0,-4.14214 3.35786,-7.5 7.5,-7.5 4.14214,0 7.5,3.35786 7.5,7.5 z" />
    <path
       sodipodi:type="arc"
       style="fill:#ffffff;fill-opacity:1;fill-rule:nonzero;stroke:none"
       id="path4472-86-7"
       sodipodi:cx="122.5"
       sodipodi:cy="257.5"
       sodipodi:rx="7.5"
       sodipodi:ry="7.5"
       d="m 130,257.5 c 0,4.14214 -3.35786,7.5 -7.5,7.5 -4.14214,0 -7.5,-3.35786 -7.5,-7.5 0,-4.14214 3.35786,-7.5 7.5,-7.5 4.14214,0 7.5,3.35786 7.5,7.5 z"
       transform="translate(5.1624412,497.30758)" />
    <path
       transform="translate(25.008881,497.35707)"
       sodipodi:type="arc"
       style="fill:#ffffff;fill-opacity:1;fill-rule:nonzero;stroke:none"
       id="path4472-0-6-8"
       sodipodi:cx="122.5"
       sodipodi:cy="257.5"
       sodipodi:rx="7.5"
       sodipodi:ry="7.5"
       d="m 130,257.5 c 0,4.14214 -3.35786,7.5 -7.5,7.5 -4.14214,0 -7.5,-3.35786 -7.5,-7.5 0,-4.14214 3.35786,-7.5 7.5,-7.5 4.14214,0 7.5,3.35786 7.5,7.5 z" />
    <path
       transform="translate(45.111681,497.56012)"
       sodipodi:type="arc"
       style="fill:#ffffff;fill-opacity:1;fill-rule:nonzero;stroke:none"
       id="path4472-3-2-1"
       sodipodi:cx="122.5"
       sodipodi:cy="257.5"
       sodipodi:rx="7.5"
       sodipodi:ry="7.5"
       d="m 130,257.5 c 0,4.14214 -3.35786,7.5 -7.5,7.5 -4.14214,0 -7.5,-3.35786 -7.5,-7.5 0,-4.14214 3.35786,-7.5 7.5,-7.5 4.14214,0 7.5,3.35786 7.5,7.5 z" />
    <path
       transform="translate(65.162441,497.30758)"
       sodipodi:type="arc"
       style="fill:#ffffff;fill-opacity:1;fill-rule:nonzero;stroke:none"
       id="path4472-6-3-6"
       sodipodi:cx="122.5"
       sodipodi:cy="257.5"
       sodipodi:rx="7.5"
       sodipodi:ry="7.5"
       d="m 130,257.5 c 0,4.14214 -3.35786,7.5 -7.5,7.5 -4.14214,0 -7.5,-3.35786 -7.5,-7.5 0,-4.14214 3.35786,-7.5 7.5,-7.5 4.14214,0 7.5,3.35786 7.5,7.5 z" />
    <path
       transform="translate(85.162441,497.30758)"
       sodipodi:type="arc"
       style="fill:#ffffff;fill-opacity:1;fill-rule:nonzero;stroke:none"
       id="path4472-2-8-0"
       sodipodi:cx="122.5"
       sodipodi:cy="257.5"
       sodipodi:rx="7.5"
       sodipodi:ry="7.5"
       d="m 130,257.5 c 0,4.14214 -3.35786,7.5 -7.5,7.5 -4.14214,0 -7.5,-3.35786 -7.5,-7.5 0,-4.14214 3.35786,-7.5 7.5,-7.5 4.14214,0 7.5,3.35786 7.5,7.5 z" />
    <path
       transform="translate(105.16244,497.30758)"
       sodipodi:type="arc"
       style="fill:#ffffff;fill-opacity:1;fill-rule:nonzero;stroke:none"
       id="path4472-4-2-9"
       sodipodi:cx="122.5"
       sodipodi:cy="257.5"
       sodipodi:rx="7.5"
       sodipodi:ry="7.5"
       d="m 130,257.5 c 0,4.14214 -3.35786,7.5 -7.5,7.5 -4.14214,0 -7.5,-3.35786 -7.5,-7.5 0,-4.14214 3.35786,-7.5 7.5,-7.5 4.14214,0 7.5,3.35786 7.5,7.5 z" />
    <path
       transform="translate(125.16244,497.30758)"
       sodipodi:type="arc"
       style="fill:#ffffff;fill-opacity:1;fill-rule:nonzero;stroke:none"
       id="path4472-5-6-5"
       sodipodi:cx="122.5"
       sodipodi:cy="257.5"
       sodipodi:rx="7.5"
       sodipodi:ry="7.5"
       d="m 130,257.5 c 0,4.14214 -3.35786,7.5 -7.5,7.5 -4.14214,0 -7.5,-3.35786 -7.5,-7.5 0,-4.14214 3.35786,-7.5 7.5,-7.5 4.14214,0 7.5,3.35786 7.5,7.5 z" />
    <path
       transform="translate(145.16244,497.30758)"
       sodipodi:type="arc"
       style="fill:#ffffff;fill-opacity:1;fill-rule:nonzero;stroke:none"
       id="path4472-8-2-8"
       sodipodi:cx="122.5"
       sodipodi:cy="257.5"
       sodipodi:rx="7.5"
       sodipodi:ry="7.5"
       d="m 130,257.5 c 0,4.14214 -3.35786,7.5 -7.5,7.5 -4.14214,0 -7.5,-3.35786 -7.5,-7.5 0,-4.14214 3.35786,-7.5 7.5,-7.5 4.14214,0 7.5,3.35786 7.5,7.5 z" />
    <path
       transform="translate(165.16244,497.30758)"
       sodipodi:type="arc"
       style="fill:#ffffff;fill-opacity:1;fill-rule:nonzero;stroke:none"
       id="path4472-81-7-9"
       sodipodi:cx="122.5"
       sodipodi:cy="257.5"
       sodipodi:rx="7.5"
       sodipodi:ry="7.5"
       d="m 130,257.5 c 0,4.14214 -3.35786,7.5 -7.5,7.5 -4.14214,0 -7.5,-3.35786 -7.5,-7.5 0,-4.14214 3.35786,-7.5 7.5,-7.5 4.14214,0 7.5,3.35786 7.5,7.5 z" />
    <path
       sodipodi:type="arc"
       style="fill:#16a085;fill-opacity:1;fill-rule:nonzero;stroke:none"
       id="path4760"
       sodipodi:cx="102.5"
       sodipodi:cy="237.5"
       sodipodi:rx="2.5"
       sodipodi:ry="2.5"
       d="m 105,237.5 c 0,1.38071 -1.11929,2.5 -2.5,2.5 -1.38071,0 -2.5,-1.11929 -2.5,-2.5 0,-1.38071 1.11929,-2.5 2.5,-2.5 1.38071,0 2.5,1.11929 2.5,2.5 z"
       transform="translate(0,552.36218)" />
    <path
       transform="translate(210,552.36218)"
       sodipodi:type="arc"
       style="fill:#16a085;fill-opacity:1;fill-rule:nonzero;stroke:none"
       id="path4760-0"
       sodipodi:cx="102.5"
       sodipodi:cy="237.5"
       sodipodi:rx="2.5"
       sodipodi:ry="2.5"
       d="m 105,237.5 c 0,1.38071 -1.11929,2.5 -2.5,2.5 -1.38071,0 -2.5,-1.11929 -2.5,-2.5 0,-1.38071 1.11929,-2.5 2.5,-2.5 1.38071,0 2.5,1.11929 2.5,2.5 z" />
    <rect
       style="fill:#2c3e50;fill-opacity:1;fill-rule:nonzero;stroke:none"
       id="rect4787"
       width="235.31477"
       height="5"
       x="90"
       y="692.36218" />
    <rect
       style="fill:#bdc3c7;fill-opacity:1;fill-rule:nonzero;stroke:none"
       id="rect5005"
       width="16.060915"
       height="55"
       x="128.93909"
       y="627.36218" />
    <rect
       style="fill:#ffffff;fill-opacity:0.94117647;fill-rule:nonzero;stroke:none"
       id="rect5005-7"
       width="14.798224"
       height="55"
       x="120.151"
       y="627.56525" />
    <rect
       style="fill:#bdc3c7;fill-opacity:1;fill-rule:nonzero;stroke:none"
       id="rect5005-2"
       width="11.262691"
       height="55"
       x="208.68654"
       y="627.61475" />
    <rect
       style="fill:#ffffff;fill-opacity:0.94117647;fill-rule:nonzero;stroke:none"
       id="rect5005-7-5"
       width="14.798224"
       height="55"
       x="195.10023"
       y="627.81781" />
    <rect
       style="fill:#bdc3c7;fill-opacity:1;fill-rule:nonzero;stroke:none"
       id="rect5005-5"
       width="14.545687"
       height="55"
       x="280.60532"
       y="627.61475" />
    <rect
       style="fill:#ffffff;fill-opacity:0.94117647;fill-rule:nonzero;stroke:none"
       id="rect5005-7-2"
       width="14.798224"
       height="55"
       x="270.302"
       y="627.81781" />
  </g>
</svg>
